<?xml version="1.0" encoding="utf-8"?>
<!-- Generator: Adobe Illustrator 24.1.2, SVG Export Plug-In . SVG Version: 6.00 Build 0)  -->
<svg version="1.1" id="Layer_1" xmlns="http://www.w3.org/2000/svg" xmlns:xlink="http://www.w3.org/1999/xlink" x="0px" y="0px"
	 viewBox="0 0 1366 768" style="enable-background:new 0 0 1366 768;" xml:space="preserve">
<style type="text/css">
	.st0{fill:#FFFFFF;}
</style>
<g>
	<path class="st0" d="M906.68,634c-147.66,0-295.32,0-442.98,0c-10.23-10.14-20.47-20.29-30.7-30.43c0-147.1,0-294.2,0-441.3
		c9.5-9.42,19.01-18.84,28.51-28.26c149.85,0,299.71,0,449.56,0c7.31,6.52,14.62,13.04,21.93,19.57c0,152.9,0,305.8,0,458.7
		C924.23,619.51,915.46,626.75,906.68,634z M529.23,315.61c-1.89,0.4-4.02,0.79-6.11,1.32c-16.31,4.16-22.95,12.64-23.03,29.49
		c-0.05,10.5,0.1,21-0.01,31.5c-0.12,12.05,6.22,19.6,16.83,24.26c2.86,1.25,5.83,2.25,5.96,2.3c-0.8,15.19-1.32,28.69-2.27,42.15
		c-1.05,14.99,1.31,28.32,13.33,33.54c0,18.74-0.18,34.56,0.05,50.37c0.26,18.34,10.08,28.04,28.68,28.14
		c34.33,0.18,68.66,0.19,102.98-0.1c5.29-0.05,10.58-2.05,15.83-3.3c4.84-1.15,9.56-2.97,14.46-3.68
		c36.38-5.31,73.15-8.77,109.05-16.29c17.63-3.7,34.33-13.71,50.22-22.95c12.19-7.1,17.2-19.37,17.02-34.27
		c-0.58-49.59-0.21-99.19-0.25-148.79c-0.02-22.11-8.21-40.9-23.77-56.61c-18.66-18.85-41.69-25.91-67.78-24.19
		c-7.3,0.48-11.11-1.07-12.09-9.51c-1.43-12.33-9.38-20.05-21.86-22.67c-10.36-2.17-20.72-4.31-31.09-6.44
		c-22.58-4.63-33.43,1.77-39.68,23.98c-1.52,5.4-3.78,7.7-9.77,7.49c-13.86-0.49-27.75-0.25-41.63-0.24
		c-21.18,0.01-42.38-0.43-63.54,0.26c-21.5,0.69-31.43,11.28-31.52,31.96C529.18,287.03,529.23,300.73,529.23,315.61z"/>
	<path d="M433,603.57c10.23,10.14,20.47,20.29,30.7,30.43c-10.23,0-20.47,0-30.7,0C433,623.85,433,613.71,433,603.57z"/>
	<path d="M461.51,134c-9.5,9.42-19.01,18.84-28.51,28.26c0-9.42,0-18.84,0-28.26C442.5,134,452.01,134,461.51,134z"/>
	<path d="M906.68,634c8.77-7.25,17.54-14.49,26.32-21.74c0,7.25,0,14.49,0,21.74C924.23,634,915.46,634,906.68,634z"/>
	<path d="M933,153.57c-7.31-6.52-14.62-13.04-21.93-19.57c7.31,0,14.62,0,21.93,0C933,140.52,933,147.04,933,153.57z"/>
	<path d="M529.23,315.61c0-14.88-0.05-28.58,0.01-42.28c0.09-20.68,10.02-31.27,31.52-31.96c21.16-0.68,42.36-0.25,63.54-0.26
		c13.88-0.01,27.77-0.25,41.63,0.24c5.99,0.21,8.25-2.09,9.77-7.49c6.25-22.21,17.11-28.61,39.68-23.98
		c10.37,2.13,20.73,4.26,31.09,6.44c12.49,2.62,20.43,10.35,21.86,22.67c0.98,8.43,4.79,9.99,12.09,9.51
		c26.09-1.72,49.12,5.34,67.78,24.19c15.55,15.71,23.75,34.5,23.77,56.61c0.04,49.6-0.33,99.2,0.25,148.79
		c0.17,14.9-4.83,27.18-17.02,34.27c-15.88,9.25-32.59,19.26-50.22,22.95c-35.9,7.53-72.67,10.98-109.05,16.29
		c-4.89,0.71-9.62,2.53-14.46,3.68c-5.25,1.25-10.54,3.26-15.83,3.3c-34.33,0.3-68.66,0.28-102.98,0.1
		c-18.6-0.09-28.42-9.8-28.68-28.14c-0.23-15.81-0.05-31.62-0.05-50.37c-12.02-5.23-14.38-18.55-13.33-33.54
		c0.95-13.47,1.47-26.96,2.27-42.15c-0.13-0.05-3.1-1.05-5.96-2.3c-10.6-4.66-16.95-12.21-16.83-24.26c0.1-10.5-0.04-21,0.01-31.5
		c0.08-16.85,6.73-25.33,23.03-29.49C525.21,316.4,527.34,316.01,529.23,315.61z M691.41,539.13c6.97,0,12.1,0.66,17-0.11
		c32.42-5.06,65.06-9.22,97.06-16.22c14.56-3.19,28.22-11.47,41.51-18.83c8.04-4.46,13.24-12.1,13.21-22.37
		c-0.15-51.08,0.31-102.17-0.22-153.25c-0.35-33.52-24.48-61.08-57.89-66.85c-9.26-1.6-18.94-0.61-28.38-1.45
		c-7.56-0.67-10.04,2.81-11.41,9.58c-7.24,35.87-15.1,71.62-22.26,107.5c-2.75,13.76-6.62,26.19-21,30.63
		c0.54,8.76,1.19,16.25,1.42,23.76c0.23,7.6,0.08,15.21,0.04,22.82c-0.09,16.35-7.08,24.52-23.38,27.5
		c-2.34,0.43-4.64,1.06-5.69,1.3C691.41,501.84,691.41,519.46,691.41,539.13z M658.88,371.88c0.12,9.94,3.66,16.32,13.17,18.29
		c11.08,2.3,22.14,4.69,33.24,6.9c13.36,2.67,20.26-1.29,23.12-14.54c9.62-44.6,18.97-89.27,28.13-133.97
		c2.39-11.66-2.82-18.49-14.79-21.04c-9.64-2.06-19.29-4.07-28.95-6.01c-16.68-3.35-22.52,0.42-26.1,17.29
		c-6.46,30.47-12.73,60.97-19.09,91.46C664.65,344.43,661.66,358.6,658.88,371.88z M622.69,407.49c-23.39,0-46.79-0.24-70.17,0.09
		c-14.67,0.2-19.56,5.55-19.62,19.92c-0.04,7.61-0.01,15.22,0.01,22.83c0.03,17.26,4.42,21.78,22.06,21.86
		c30.7,0.13,61.4,0.05,92.11,0.04c14.99,0,29.98,0.28,44.95-0.14c13.58-0.38,18.35-5.56,18.47-18.73
		c0.07-7.97,0.02-15.94,0.01-23.91c-0.03-17.17-4.51-21.79-22.02-21.92C666.55,407.35,644.62,407.47,622.69,407.49z M656.37,328.09
		c-23,0-44.86,0-66.73,0c-19.36,0-38.73-0.22-58.09,0.1c-14.49,0.24-19.55,5.7-19.61,19.91c-0.03,7.61-0.02,15.21-0.01,22.82
		c0.02,17.43,4.29,21.79,21.95,21.82c36.9,0.08,73.8,0.04,110.71-0.01c2.73,0,5.46-0.52,9.42-0.93
		C641.76,370.01,656.9,350.31,656.37,328.09z M614.3,482.09c-17.5,0-35-0.18-52.5,0.07c-10.8,0.15-15.16,4.57-15.4,15.33
		c-0.26,11.56-0.12,23.13-0.03,34.69c0.07,9.76,5.36,14.71,15,14.74c35,0.11,70,0.17,105-0.03c10.71-0.06,15.21-4.7,15.5-15.37
		c0.3-11.2,0.28-22.41,0.01-33.61c-0.28-11.3-4.73-15.65-16.17-15.78C648.58,481.94,631.44,482.08,614.3,482.09z M673.3,253.76
		c-40.62,0-78.85-0.36-117.06,0.26c-9.29,0.15-15.22,6.25-15.01,16.56c0.19,9.4-0.01,18.8,0.05,28.2
		c0.09,13.48,5.4,19.34,19.02,19.47c30.64,0.29,61.28,0.23,91.92-0.1c2.83-0.03,7.63-2.51,8.14-4.65
		C664.98,294.26,668.85,274.84,673.3,253.76z"/>
	<path class="st0" d="M691.41,539.13c0-19.67,0-37.29,0-55.98c1.05-0.24,3.35-0.88,5.69-1.3c16.3-2.98,23.29-11.16,23.38-27.5
		c0.04-7.61,0.19-15.22-0.04-22.82c-0.23-7.51-0.88-15.01-1.42-23.76c14.38-4.44,18.25-16.88,21-30.63
		c7.16-35.89,15.02-71.63,22.26-107.5c1.37-6.78,3.85-10.26,11.41-9.58c9.43,0.84,19.12-0.15,28.38,1.45
		c33.41,5.78,57.54,33.33,57.89,66.85c0.53,51.08,0.07,102.16,0.22,153.25c0.03,10.27-5.17,17.92-13.21,22.37
		c-13.28,7.36-26.95,15.65-41.51,18.83c-32,7-64.64,11.17-97.06,16.22C703.51,539.79,698.39,539.13,691.41,539.13z"/>
	<path class="st0" d="M658.88,371.88c2.78-13.28,5.77-27.44,8.73-41.62c6.36-30.49,12.64-60.99,19.09-91.46
		c3.58-16.87,9.42-20.64,26.1-17.29c9.66,1.94,19.31,3.95,28.95,6.01c11.97,2.56,17.18,9.38,14.79,21.04
		c-9.16,44.7-18.52,89.36-28.13,133.97c-2.86,13.25-9.76,17.21-23.12,14.54c-11.1-2.22-22.16-4.61-33.24-6.9
		C662.54,388.2,659,381.82,658.88,371.88z"/>
	<path class="st0" d="M622.69,407.48c21.93-0.01,43.86-0.13,65.79,0.03c17.51,0.13,21.99,4.74,22.02,21.92
		c0.01,7.97,0.06,15.94-0.01,23.91c-0.12,13.17-4.89,18.35-18.47,18.73c-14.97,0.42-29.97,0.14-44.95,0.14
		c-30.7,0.01-61.4,0.09-92.11-0.04c-17.63-0.07-22.03-4.6-22.06-21.86c-0.01-7.61-0.04-15.22-0.01-22.83
		c0.07-14.37,4.95-19.71,19.62-19.92C575.91,407.25,599.3,407.49,622.69,407.48z"/>
	<path class="st0" d="M656.37,328.09c0.53,22.22-14.61,41.92-2.35,63.72c-3.97,0.41-6.69,0.93-9.42,0.93
		c-36.9,0.05-73.8,0.09-110.71,0.01c-17.66-0.04-21.93-4.39-21.95-21.82c-0.01-7.61-0.02-15.21,0.01-22.82
		c0.06-14.21,5.12-19.67,19.61-19.91c19.36-0.32,38.73-0.1,58.09-0.1C611.51,328.08,633.37,328.09,656.37,328.09z"/>
	<path class="st0" d="M614.3,482.09c17.14,0,34.27-0.15,51.41,0.05c11.44,0.13,15.89,4.48,16.17,15.78
		c0.27,11.2,0.29,22.41-0.01,33.61c-0.29,10.66-4.79,15.3-15.5,15.37c-35,0.21-70,0.14-105,0.03c-9.64-0.03-14.93-4.98-15-14.74
		c-0.08-11.56-0.22-23.13,0.03-34.69c0.24-10.75,4.6-15.17,15.4-15.33C579.3,481.91,596.8,482.09,614.3,482.09z"/>
	<path class="st0" d="M673.3,253.76c-4.45,21.08-8.32,40.5-12.94,59.75c-0.51,2.14-5.31,4.62-8.14,4.65
		c-30.64,0.33-61.28,0.39-91.92,0.1c-13.62-0.13-18.93-5.99-19.02-19.47c-0.06-9.4,0.15-18.81-0.05-28.2
		c-0.21-10.32,5.72-16.41,15.01-16.56C594.45,253.4,632.68,253.76,673.3,253.76z"/>
</g>
</svg>
