<?xml version="1.0" encoding="utf-8"?>
<!-- Generator: Adobe Illustrator 24.1.2, SVG Export Plug-In . SVG Version: 6.00 Build 0)  -->
<svg version="1.1" id="Layer_1" xmlns="http://www.w3.org/2000/svg" xmlns:xlink="http://www.w3.org/1999/xlink" x="0px" y="0px"
	 viewBox="0 0 1366 768" style="enable-background:new 0 0 1366 768;" xml:space="preserve">
<style type="text/css">
	.st0{fill:#FFFFFF;}
</style>
<g>
	<path class="st0" d="M459.32,634c147.66,0,295.32,0,442.98,0c10.23-10.14,20.47-20.29,30.7-30.43c0-147.1,0-294.2,0-441.3
		c-9.5-9.42-19.01-18.84-28.51-28.26c-149.85,0-299.71,0-449.56,0c-7.31,6.52-14.62,13.04-21.93,19.57c0,152.9,0,305.8,0,458.7
		C441.77,619.51,450.54,626.75,459.32,634z M836.77,315.61c1.89,0.4,4.02,0.79,6.11,1.32c16.31,4.16,22.95,12.64,23.03,29.49
		c0.05,10.5-0.1,21,0.01,31.5c0.12,12.05-6.22,19.61-16.83,24.26c-2.86,1.25-5.83,2.25-5.96,2.3c0.8,15.19,1.32,28.69,2.27,42.15
		c1.05,14.99-1.31,28.32-13.33,33.54c0,18.74,0.18,34.56-0.05,50.37c-0.26,18.34-10.08,28.04-28.68,28.14
		c-34.33,0.18-68.66,0.19-102.98-0.1c-5.29-0.05-10.58-2.05-15.83-3.3c-4.84-1.15-9.56-2.97-14.46-3.68
		c-36.38-5.31-73.15-8.77-109.05-16.29c-17.63-3.7-34.33-13.71-50.22-22.95c-12.19-7.1-17.2-19.37-17.02-34.27
		c0.58-49.59,0.21-99.19,0.25-148.79c0.02-22.11,8.21-40.9,23.77-56.61c18.66-18.85,41.69-25.91,67.78-24.19
		c7.3,0.48,11.11-1.07,12.09-9.51c1.43-12.33,9.38-20.05,21.86-22.67c10.36-2.17,20.72-4.31,31.09-6.44
		c22.58-4.63,33.43,1.77,39.68,23.98c1.52,5.4,3.78,7.7,9.77,7.49c13.86-0.49,27.75-0.25,41.63-0.24
		c21.18,0.01,42.38-0.43,63.54,0.26c21.5,0.69,31.43,11.28,31.52,31.96C836.82,287.03,836.77,300.73,836.77,315.61z"/>
	<path d="M933,603.57c-10.23,10.14-20.47,20.29-30.7,30.43c10.23,0,20.47,0,30.7,0C933,623.86,933,613.71,933,603.57z"/>
	<path d="M904.49,134c9.5,9.42,19.01,18.84,28.51,28.26c0-9.42,0-18.84,0-28.26C923.5,134,913.99,134,904.49,134z"/>
	<path d="M459.32,634c-8.77-7.25-17.54-14.49-26.32-21.74c0,7.25,0,14.49,0,21.74C441.77,634,450.54,634,459.32,634z"/>
	<path d="M433,153.57c7.31-6.52,14.62-13.04,21.93-19.57c-7.31,0-14.62,0-21.93,0C433,140.52,433,147.04,433,153.57z"/>
	<path d="M836.77,315.61c0-14.88,0.05-28.58-0.01-42.28c-0.09-20.68-10.02-31.27-31.52-31.96c-21.16-0.68-42.36-0.25-63.54-0.26
		c-13.88-0.01-27.77-0.25-41.63,0.24c-5.99,0.21-8.25-2.09-9.77-7.49c-6.25-22.21-17.11-28.61-39.68-23.98
		c-10.37,2.13-20.73,4.26-31.09,6.44c-12.49,2.62-20.43,10.35-21.86,22.67c-0.98,8.43-4.79,9.99-12.09,9.51
		c-26.09-1.72-49.12,5.34-67.78,24.19c-15.55,15.71-23.75,34.5-23.77,56.61c-0.04,49.6,0.33,99.2-0.25,148.79
		c-0.17,14.9,4.83,27.18,17.02,34.27c15.88,9.25,32.59,19.26,50.22,22.95c35.9,7.53,72.67,10.98,109.05,16.29
		c4.89,0.71,9.62,2.53,14.46,3.68c5.25,1.25,10.54,3.26,15.83,3.3c34.33,0.3,68.66,0.28,102.98,0.1c18.6-0.09,28.42-9.8,28.68-28.14
		c0.23-15.81,0.05-31.62,0.05-50.37c12.02-5.23,14.38-18.55,13.33-33.54c-0.95-13.47-1.47-26.96-2.27-42.15
		c0.13-0.05,3.1-1.05,5.96-2.3c10.6-4.66,16.95-12.21,16.83-24.26c-0.1-10.5,0.04-21-0.01-31.5c-0.08-16.85-6.73-25.33-23.03-29.49
		C840.79,316.4,838.66,316.01,836.77,315.61z M674.59,539.13c-6.97,0-12.1,0.66-17-0.11c-32.42-5.06-65.06-9.22-97.06-16.22
		c-14.56-3.19-28.22-11.47-41.51-18.83c-8.04-4.46-13.24-12.1-13.21-22.37c0.15-51.08-0.31-102.17,0.22-153.25
		c0.35-33.52,24.48-61.08,57.89-66.85c9.26-1.6,18.94-0.61,28.38-1.45c7.56-0.67,10.04,2.81,11.41,9.58
		c7.24,35.87,15.1,71.62,22.26,107.5c2.75,13.76,6.62,26.19,21,30.63c-0.54,8.76-1.19,16.25-1.42,23.76
		c-0.23,7.6-0.08,15.21-0.04,22.82c0.09,16.35,7.08,24.52,23.38,27.5c2.34,0.43,4.64,1.06,5.69,1.3
		C674.59,501.84,674.59,519.46,674.59,539.13z M707.12,371.88c-0.12,9.94-3.66,16.32-13.17,18.29c-11.08,2.3-22.14,4.69-33.24,6.9
		c-13.36,2.67-20.26-1.29-23.12-14.54c-9.62-44.6-18.97-89.27-28.13-133.97c-2.39-11.66,2.82-18.49,14.79-21.04
		c9.64-2.06,19.29-4.07,28.95-6.01c16.68-3.35,22.52,0.42,26.1,17.29c6.46,30.47,12.73,60.97,19.09,91.46
		C701.35,344.43,704.34,358.6,707.12,371.88z M743.31,407.49c23.39,0,46.79-0.24,70.17,0.09c14.67,0.2,19.56,5.55,19.62,19.92
		c0.04,7.61,0.01,15.22-0.01,22.83c-0.03,17.26-4.42,21.78-22.06,21.86c-30.7,0.13-61.4,0.04-92.11,0.04
		c-14.99,0-29.98,0.28-44.95-0.14c-13.58-0.38-18.35-5.56-18.47-18.73c-0.07-7.97-0.02-15.94-0.01-23.91
		c0.03-17.17,4.51-21.79,22.02-21.92C699.45,407.35,721.38,407.47,743.31,407.49z M709.63,328.09c23,0,44.86,0,66.73,0
		c19.36,0,38.73-0.22,58.09,0.1c14.49,0.24,19.55,5.7,19.61,19.91c0.03,7.61,0.02,15.21,0.01,22.82
		c-0.02,17.43-4.29,21.79-21.95,21.82c-36.9,0.08-73.8,0.04-110.71-0.01c-2.73,0-5.46-0.52-9.42-0.93
		C724.24,370.01,709.1,350.31,709.63,328.09z M751.7,482.09c17.5,0,35-0.18,52.5,0.07c10.8,0.15,15.16,4.57,15.4,15.33
		c0.26,11.56,0.12,23.13,0.03,34.69c-0.07,9.76-5.36,14.71-15,14.74c-35,0.11-70,0.17-105-0.03c-10.71-0.06-15.21-4.7-15.5-15.37
		c-0.3-11.2-0.28-22.41-0.01-33.61c0.28-11.3,4.73-15.65,16.17-15.78C717.42,481.94,734.56,482.08,751.7,482.09z M692.7,253.76
		c40.62,0,78.85-0.36,117.06,0.26c9.29,0.15,15.22,6.25,15.01,16.56c-0.19,9.4,0.01,18.8-0.05,28.2
		c-0.09,13.48-5.4,19.34-19.02,19.47c-30.64,0.29-61.28,0.23-91.92-0.1c-2.83-0.03-7.63-2.51-8.14-4.65
		C701.02,294.26,697.15,274.84,692.7,253.76z"/>
	<path class="st0" d="M674.59,539.13c0-19.67,0-37.29,0-55.98c-1.05-0.24-3.35-0.88-5.69-1.3c-16.3-2.98-23.29-11.16-23.38-27.5
		c-0.04-7.61-0.19-15.22,0.04-22.82c0.23-7.51,0.88-15.01,1.42-23.76c-14.38-4.44-18.25-16.88-21-30.63
		c-7.16-35.89-15.02-71.63-22.26-107.5c-1.37-6.78-3.85-10.26-11.41-9.58c-9.43,0.84-19.12-0.15-28.38,1.45
		c-33.41,5.78-57.54,33.33-57.89,66.85c-0.53,51.08-0.07,102.16-0.22,153.25c-0.03,10.27,5.17,17.92,13.21,22.37
		c13.28,7.36,26.95,15.65,41.51,18.83c32,7,64.64,11.17,97.06,16.22C662.49,539.79,667.61,539.13,674.59,539.13z"/>
	<path class="st0" d="M707.12,371.88c-2.78-13.28-5.77-27.44-8.73-41.62c-6.36-30.49-12.64-60.99-19.09-91.46
		c-3.58-16.87-9.42-20.64-26.1-17.29c-9.66,1.94-19.31,3.95-28.95,6.01c-11.97,2.56-17.18,9.38-14.79,21.04
		c9.16,44.7,18.52,89.36,28.13,133.97c2.86,13.25,9.76,17.21,23.12,14.54c11.1-2.22,22.16-4.61,33.24-6.9
		C703.46,388.2,707,381.82,707.12,371.88z"/>
	<path class="st0" d="M743.31,407.48c-21.93-0.01-43.86-0.13-65.79,0.03c-17.51,0.13-21.99,4.74-22.02,21.92
		c-0.01,7.97-0.06,15.94,0.01,23.91c0.12,13.17,4.89,18.35,18.47,18.73c14.97,0.42,29.97,0.14,44.95,0.14
		c30.7,0.01,61.4,0.09,92.11-0.04c17.63-0.07,22.03-4.6,22.06-21.86c0.01-7.61,0.04-15.22,0.01-22.83
		c-0.07-14.37-4.95-19.71-19.62-19.92C790.09,407.25,766.7,407.49,743.31,407.48z"/>
	<path class="st0" d="M709.63,328.09c-0.53,22.22,14.61,41.92,2.35,63.72c3.97,0.41,6.69,0.93,9.42,0.93
		c36.9,0.05,73.8,0.09,110.71,0.01c17.66-0.04,21.93-4.39,21.95-21.82c0.01-7.61,0.02-15.21-0.01-22.82
		c-0.06-14.21-5.12-19.67-19.61-19.91c-19.36-0.32-38.73-0.1-58.09-0.1C754.49,328.08,732.63,328.09,709.63,328.09z"/>
	<path class="st0" d="M751.7,482.09c-17.14,0-34.27-0.15-51.41,0.05c-11.44,0.13-15.89,4.48-16.17,15.78
		c-0.27,11.2-0.29,22.41,0.01,33.61c0.29,10.66,4.79,15.3,15.5,15.37c35,0.21,70,0.14,105,0.03c9.64-0.03,14.93-4.98,15-14.74
		c0.08-11.56,0.22-23.13-0.03-34.69c-0.24-10.75-4.6-15.17-15.4-15.33C786.7,481.91,769.2,482.09,751.7,482.09z"/>
	<path class="st0" d="M692.7,253.76c4.45,21.08,8.32,40.5,12.94,59.75c0.51,2.14,5.31,4.62,8.14,4.65
		c30.64,0.33,61.28,0.39,91.92,0.1c13.62-0.13,18.93-5.99,19.02-19.47c0.06-9.4-0.15-18.81,0.05-28.2
		c0.21-10.32-5.72-16.41-15.01-16.56C771.55,253.4,733.32,253.76,692.7,253.76z"/>
</g>
</svg>
